<svg xmlns="http://www.w3.org/2000/svg" xmlns:xlink="http://www.w3.org/1999/xlink" width="200" zoomAndPan="magnify" viewBox="0 0 150 37.5" height="50" preserveAspectRatio="xMidYMid meet" version="1.0"><defs><g/><clipPath id="7eda478a71"><path d="M 32.441406 1.480469 L 62.972656 1.480469 L 62.972656 37.007812 L 32.441406 37.007812 Z M 32.441406 1.480469 " clip-rule="nonzero"/></clipPath><clipPath id="a1d0a9cb83"><path d="M 47.707031 1.480469 L 62.972656 10.363281 L 62.972656 28.125 L 47.707031 37.007812 L 32.441406 28.125 L 32.441406 10.363281 Z M 47.707031 1.480469 " clip-rule="nonzero"/></clipPath></defs><g clip-path="url(#7eda478a71)"><g clip-path="url(#a1d0a9cb83)"><path stroke-linecap="butt" transform="matrix(0, -0.236836, 0.236836, 0, 32.442433, 37.006578)" fill="none" stroke-linejoin="miter" d="M 150.002829 64.452116 L 112.496696 128.908567 L 37.500922 128.908567 L -0.00521081 64.452116 L 37.500922 -0.00433485 L 112.496696 -0.00433485 Z M 150.002829 64.452116 " stroke="#000000" stroke-width="25.000616" stroke-opacity="1" stroke-miterlimit="4"/></g></g><g fill="#000000" fill-opacity="1"><g transform="translate(62.972108, 23.980583)"><g><path d="M 6.890625 -9.015625 L 6.890625 -7.515625 L 2.953125 -7.515625 L 2.953125 -5.140625 L 6.515625 -5.140625 L 6.515625 -3.65625 L 2.953125 -3.65625 L 2.953125 0 L 1.171875 0 L 1.171875 -9.015625 Z M 6.890625 -9.015625 "/></g></g></g><g fill="#000000" fill-opacity="1"><g transform="translate(70.261513, 23.980583)"><g><path d="M 1.828125 -7.609375 C 1.523438 -7.609375 1.273438 -7.703125 1.078125 -7.890625 C 0.890625 -8.078125 0.796875 -8.320312 0.796875 -8.625 C 0.796875 -8.914062 0.890625 -9.148438 1.078125 -9.328125 C 1.273438 -9.515625 1.523438 -9.609375 1.828125 -9.609375 C 2.035156 -9.609375 2.21875 -9.566406 2.375 -9.484375 C 2.539062 -9.398438 2.664062 -9.28125 2.75 -9.125 C 2.84375 -8.976562 2.890625 -8.8125 2.890625 -8.625 C 2.890625 -8.425781 2.84375 -8.25 2.75 -8.09375 C 2.664062 -7.945312 2.539062 -7.828125 2.375 -7.734375 C 2.21875 -7.648438 2.035156 -7.609375 1.828125 -7.609375 Z M 0.984375 0 L 0.984375 -6.796875 L 2.6875 -6.796875 L 2.6875 0 Z M 0.984375 0 "/></g></g></g><g fill="#000000" fill-opacity="1"><g transform="translate(73.924716, 23.980583)"><g><path d="M 2.828125 0.125 C 2.210938 0.125 1.742188 -0.0351562 1.421875 -0.359375 C 1.097656 -0.691406 0.9375 -1.195312 0.9375 -1.875 L 0.9375 -9.53125 L 2.640625 -9.53125 L 2.640625 -1.9375 C 2.640625 -1.519531 2.8125 -1.3125 3.15625 -1.3125 C 3.257812 -1.3125 3.367188 -1.332031 3.484375 -1.375 L 3.5625 -1.34375 L 3.71875 -0.03125 C 3.625 0.0195312 3.5 0.0546875 3.34375 0.078125 C 3.1875 0.109375 3.015625 0.125 2.828125 0.125 Z M 2.828125 0.125 "/></g></g></g><g fill="#000000" fill-opacity="1"><g transform="translate(77.8346, 23.980583)"><g><path d="M 6.71875 -3.015625 L 2.34375 -3.015625 C 2.394531 -2.421875 2.5625 -1.988281 2.84375 -1.71875 C 3.132812 -1.445312 3.53125 -1.3125 4.03125 -1.3125 C 4.425781 -1.3125 4.742188 -1.382812 4.984375 -1.53125 C 5.222656 -1.675781 5.414062 -1.898438 5.5625 -2.203125 L 5.703125 -2.203125 L 6.828125 -1.46875 C 6.609375 -1 6.273438 -0.613281 5.828125 -0.3125 C 5.378906 -0.0195312 4.78125 0.125 4.03125 0.125 C 3.332031 0.125 2.722656 -0.00390625 2.203125 -0.265625 C 1.691406 -0.535156 1.296875 -0.929688 1.015625 -1.453125 C 0.742188 -1.984375 0.609375 -2.628906 0.609375 -3.390625 C 0.609375 -4.171875 0.753906 -4.820312 1.046875 -5.34375 C 1.335938 -5.875 1.734375 -6.269531 2.234375 -6.53125 C 2.734375 -6.789062 3.289062 -6.921875 3.90625 -6.921875 C 4.863281 -6.921875 5.597656 -6.664062 6.109375 -6.15625 C 6.628906 -5.65625 6.890625 -4.910156 6.890625 -3.921875 C 6.890625 -3.566406 6.875 -3.289062 6.84375 -3.09375 Z M 5.25 -4.125 C 5.238281 -4.632812 5.117188 -5.007812 4.890625 -5.25 C 4.671875 -5.488281 4.34375 -5.609375 3.90625 -5.609375 C 3.039062 -5.609375 2.535156 -5.113281 2.390625 -4.125 Z M 5.25 -4.125 "/></g></g></g><g fill="#000000" fill-opacity="1"><g transform="translate(85.228845, 23.980583)"><g><path d="M 6.984375 -5.625 L 6.984375 -9.015625 L 8.765625 -9.015625 L 8.765625 0 L 6.984375 0 L 6.984375 -4.109375 L 2.953125 -4.109375 L 2.953125 0 L 1.171875 0 L 1.171875 -9.015625 L 2.953125 -9.015625 L 2.953125 -5.625 Z M 6.984375 -5.625 "/></g></g></g><g fill="#000000" fill-opacity="1"><g transform="translate(95.176232, 23.980583)"><g><path d="M 1.828125 -7.609375 C 1.523438 -7.609375 1.273438 -7.703125 1.078125 -7.890625 C 0.890625 -8.078125 0.796875 -8.320312 0.796875 -8.625 C 0.796875 -8.914062 0.890625 -9.148438 1.078125 -9.328125 C 1.273438 -9.515625 1.523438 -9.609375 1.828125 -9.609375 C 2.035156 -9.609375 2.21875 -9.566406 2.375 -9.484375 C 2.539062 -9.398438 2.664062 -9.28125 2.75 -9.125 C 2.84375 -8.976562 2.890625 -8.8125 2.890625 -8.625 C 2.890625 -8.425781 2.84375 -8.25 2.75 -8.09375 C 2.664062 -7.945312 2.539062 -7.828125 2.375 -7.734375 C 2.21875 -7.648438 2.035156 -7.609375 1.828125 -7.609375 Z M 0.984375 0 L 0.984375 -6.796875 L 2.6875 -6.796875 L 2.6875 0 Z M 0.984375 0 "/></g></g></g><g fill="#000000" fill-opacity="1"><g transform="translate(98.839435, 23.980583)"><g><path d="M 4.671875 0 L 2.640625 0 L 0.125 -6.796875 L 1.921875 -6.796875 L 3.609375 -1.953125 L 3.75 -1.953125 L 5.4375 -6.796875 L 7.1875 -6.796875 Z M 4.671875 0 "/></g></g></g><g fill="#000000" fill-opacity="1"><g transform="translate(106.153508, 23.980583)"><g><path d="M 6.71875 -3.015625 L 2.34375 -3.015625 C 2.394531 -2.421875 2.5625 -1.988281 2.84375 -1.71875 C 3.132812 -1.445312 3.53125 -1.3125 4.03125 -1.3125 C 4.425781 -1.3125 4.742188 -1.382812 4.984375 -1.53125 C 5.222656 -1.675781 5.414062 -1.898438 5.5625 -2.203125 L 5.703125 -2.203125 L 6.828125 -1.46875 C 6.609375 -1 6.273438 -0.613281 5.828125 -0.3125 C 5.378906 -0.0195312 4.78125 0.125 4.03125 0.125 C 3.332031 0.125 2.722656 -0.00390625 2.203125 -0.265625 C 1.691406 -0.535156 1.296875 -0.929688 1.015625 -1.453125 C 0.742188 -1.984375 0.609375 -2.628906 0.609375 -3.390625 C 0.609375 -4.171875 0.753906 -4.820312 1.046875 -5.34375 C 1.335938 -5.875 1.734375 -6.269531 2.234375 -6.53125 C 2.734375 -6.789062 3.289062 -6.921875 3.90625 -6.921875 C 4.863281 -6.921875 5.597656 -6.664062 6.109375 -6.15625 C 6.628906 -5.65625 6.890625 -4.910156 6.890625 -3.921875 C 6.890625 -3.566406 6.875 -3.289062 6.84375 -3.09375 Z M 5.25 -4.125 C 5.238281 -4.632812 5.117188 -5.007812 4.890625 -5.25 C 4.671875 -5.488281 4.34375 -5.609375 3.90625 -5.609375 C 3.039062 -5.609375 2.535156 -5.113281 2.390625 -4.125 Z M 5.25 -4.125 "/></g></g></g></svg>