<svg xmlns="http://www.w3.org/2000/svg" xmlns:xlink="http://www.w3.org/1999/xlink" width="250" zoomAndPan="magnify" viewBox="0 0 187.5 74.999997" height="100" preserveAspectRatio="xMidYMid meet" version="1.0"><defs><g/><clipPath id="ed31666ab8"><path d="M 7.480469 3.09375 L 69.1875 3.09375 L 69.1875 74.898438 L 7.480469 74.898438 Z M 7.480469 3.09375 " clip-rule="nonzero"/></clipPath><clipPath id="65f257ea30"><path d="M 38.335938 3.09375 L 69.1875 21.046875 L 69.1875 56.949219 L 38.335938 74.898438 L 7.480469 56.949219 L 7.480469 21.046875 Z M 38.335938 3.09375 " clip-rule="nonzero"/></clipPath></defs><g clip-path="url(#ed31666ab8)"><g clip-path="url(#65f257ea30)"><path stroke-linecap="butt" transform="matrix(0, -0.478712, 0.478712, 0, 7.480053, 74.90026)" fill="none" stroke-linejoin="miter" d="M 149.999518 64.456103 L 112.49651 128.903177 L 37.498655 128.903177 L 0.00380781 64.456103 L 37.498655 0.000868728 L 112.49651 0.000868728 Z M 149.999518 64.456103 " stroke="#ffffff" stroke-width="12.500308" stroke-opacity="1" stroke-miterlimit="4"/></g></g><g fill="#ffffff" fill-opacity="1"><g transform="translate(69.188969, 48.571121)"><g><path d="M 13.921875 -18.21875 L 13.921875 -15.203125 L 5.96875 -15.203125 L 5.96875 -10.390625 L 13.1875 -10.390625 L 13.1875 -7.40625 L 5.96875 -7.40625 L 5.96875 0 L 2.375 0 L 2.375 -18.21875 Z M 13.921875 -18.21875 "/></g></g></g><g fill="#ffffff" fill-opacity="1"><g transform="translate(83.922872, 48.571121)"><g><path d="M 3.703125 -15.390625 C 3.078125 -15.390625 2.566406 -15.578125 2.171875 -15.953125 C 1.785156 -16.335938 1.59375 -16.828125 1.59375 -17.421875 C 1.59375 -18.015625 1.785156 -18.5 2.171875 -18.875 C 2.566406 -19.257812 3.078125 -19.453125 3.703125 -19.453125 C 4.117188 -19.453125 4.488281 -19.363281 4.8125 -19.1875 C 5.132812 -19.007812 5.382812 -18.769531 5.5625 -18.46875 C 5.738281 -18.164062 5.828125 -17.816406 5.828125 -17.421875 C 5.828125 -17.035156 5.738281 -16.6875 5.5625 -16.375 C 5.382812 -16.070312 5.132812 -15.832031 4.8125 -15.65625 C 4.488281 -15.476562 4.117188 -15.390625 3.703125 -15.390625 Z M 1.984375 0 L 1.984375 -13.75 L 5.4375 -13.75 L 5.4375 0 Z M 1.984375 0 "/></g></g></g><g fill="#ffffff" fill-opacity="1"><g transform="translate(91.327219, 48.571121)"><g><path d="M 5.703125 0.265625 C 4.472656 0.265625 3.53125 -0.0664062 2.875 -0.734375 C 2.21875 -1.410156 1.890625 -2.429688 1.890625 -3.796875 L 1.890625 -19.265625 L 5.34375 -19.265625 L 5.34375 -3.921875 C 5.34375 -3.085938 5.691406 -2.671875 6.390625 -2.671875 C 6.585938 -2.671875 6.800781 -2.703125 7.03125 -2.765625 L 7.203125 -2.71875 L 7.515625 -0.0625 C 7.328125 0.0390625 7.070312 0.117188 6.75 0.171875 C 6.4375 0.234375 6.085938 0.265625 5.703125 0.265625 Z M 5.703125 0.265625 "/></g></g></g><g fill="#ffffff" fill-opacity="1"><g transform="translate(99.230175, 48.571121)"><g><path d="M 13.59375 -6.09375 L 4.75 -6.09375 C 4.851562 -4.894531 5.191406 -4.023438 5.765625 -3.484375 C 6.347656 -2.941406 7.144531 -2.671875 8.15625 -2.671875 C 8.945312 -2.671875 9.585938 -2.816406 10.078125 -3.109375 C 10.566406 -3.398438 10.957031 -3.847656 11.25 -4.453125 L 11.515625 -4.453125 L 13.8125 -2.984375 C 13.363281 -2.015625 12.6875 -1.226562 11.78125 -0.625 C 10.875 -0.03125 9.664062 0.265625 8.15625 0.265625 C 6.726562 0.265625 5.5 -0.00390625 4.46875 -0.546875 C 3.4375 -1.085938 2.640625 -1.890625 2.078125 -2.953125 C 1.515625 -4.023438 1.234375 -5.332031 1.234375 -6.875 C 1.234375 -8.4375 1.523438 -9.75 2.109375 -10.8125 C 2.703125 -11.882812 3.5 -12.6875 4.5 -13.21875 C 5.507812 -13.75 6.644531 -14.015625 7.90625 -14.015625 C 9.851562 -14.015625 11.34375 -13.5 12.375 -12.46875 C 13.40625 -11.4375 13.921875 -9.921875 13.921875 -7.921875 C 13.921875 -7.203125 13.894531 -6.644531 13.84375 -6.25 Z M 10.625 -8.328125 C 10.59375 -9.367188 10.347656 -10.128906 9.890625 -10.609375 C 9.441406 -11.085938 8.78125 -11.328125 7.90625 -11.328125 C 6.15625 -11.328125 5.128906 -10.328125 4.828125 -8.328125 Z M 10.625 -8.328125 "/></g></g></g><g fill="#ffffff" fill-opacity="1"><g transform="translate(114.175991, 48.571121)"><g><path d="M 14.140625 -11.375 L 14.140625 -18.21875 L 17.734375 -18.21875 L 17.734375 0 L 14.140625 0 L 14.140625 -8.296875 L 5.96875 -8.296875 L 5.96875 0 L 2.375 0 L 2.375 -18.21875 L 5.96875 -18.21875 L 5.96875 -11.375 Z M 14.140625 -11.375 "/></g></g></g><g fill="#ffffff" fill-opacity="1"><g transform="translate(134.282411, 48.571121)"><g><path d="M 3.703125 -15.390625 C 3.078125 -15.390625 2.566406 -15.578125 2.171875 -15.953125 C 1.785156 -16.335938 1.59375 -16.828125 1.59375 -17.421875 C 1.59375 -18.015625 1.785156 -18.5 2.171875 -18.875 C 2.566406 -19.257812 3.078125 -19.453125 3.703125 -19.453125 C 4.117188 -19.453125 4.488281 -19.363281 4.8125 -19.1875 C 5.132812 -19.007812 5.382812 -18.769531 5.5625 -18.46875 C 5.738281 -18.164062 5.828125 -17.816406 5.828125 -17.421875 C 5.828125 -17.035156 5.738281 -16.6875 5.5625 -16.375 C 5.382812 -16.070312 5.132812 -15.832031 4.8125 -15.65625 C 4.488281 -15.476562 4.117188 -15.390625 3.703125 -15.390625 Z M 1.984375 0 L 1.984375 -13.75 L 5.4375 -13.75 L 5.4375 0 Z M 1.984375 0 "/></g></g></g><g fill="#ffffff" fill-opacity="1"><g transform="translate(141.686758, 48.571121)"><g><path d="M 9.46875 0 L 5.34375 0 L 0.265625 -13.75 L 3.875 -13.75 L 7.296875 -3.953125 L 7.578125 -3.953125 L 11.015625 -13.75 L 14.53125 -13.75 Z M 9.46875 0 "/></g></g></g><g fill="#ffffff" fill-opacity="1"><g transform="translate(156.470522, 48.571121)"><g><path d="M 13.59375 -6.09375 L 4.75 -6.09375 C 4.851562 -4.894531 5.191406 -4.023438 5.765625 -3.484375 C 6.347656 -2.941406 7.144531 -2.671875 8.15625 -2.671875 C 8.945312 -2.671875 9.585938 -2.816406 10.078125 -3.109375 C 10.566406 -3.398438 10.957031 -3.847656 11.25 -4.453125 L 11.515625 -4.453125 L 13.8125 -2.984375 C 13.363281 -2.015625 12.6875 -1.226562 11.78125 -0.625 C 10.875 -0.03125 9.664062 0.265625 8.15625 0.265625 C 6.726562 0.265625 5.5 -0.00390625 4.46875 -0.546875 C 3.4375 -1.085938 2.640625 -1.890625 2.078125 -2.953125 C 1.515625 -4.023438 1.234375 -5.332031 1.234375 -6.875 C 1.234375 -8.4375 1.523438 -9.75 2.109375 -10.8125 C 2.703125 -11.882812 3.5 -12.6875 4.5 -13.21875 C 5.507812 -13.75 6.644531 -14.015625 7.90625 -14.015625 C 9.851562 -14.015625 11.34375 -13.5 12.375 -12.46875 C 13.40625 -11.4375 13.921875 -9.921875 13.921875 -7.921875 C 13.921875 -7.203125 13.894531 -6.644531 13.84375 -6.25 Z M 10.625 -8.328125 C 10.59375 -9.367188 10.347656 -10.128906 9.890625 -10.609375 C 9.441406 -11.085938 8.78125 -11.328125 7.90625 -11.328125 C 6.15625 -11.328125 5.128906 -10.328125 4.828125 -8.328125 Z M 10.625 -8.328125 "/></g></g></g></svg>